<svg width="445" height="113" viewBox="0 0 445 113" fill="none" xmlns="http://www.w3.org/2000/svg">
<g clip-path="url(#clip0_1234_6179)">
<path d="M113.725 21.2794C113.664 19.8463 113.468 18.422 113.139 17.0257C112.021 12.2668 109.343 8.01812 105.529 4.95582C101.779 1.85747 97.0906 0.11508 92.225 0.0108917H23.0429C21.2588 -0.0424407 19.4742 0.100205 17.7212 0.436261C13.5547 1.34833 9.74487 3.45486 6.75856 6.49779C4.58463 8.59849 2.91136 11.1608 1.86259 13.995C0.972905 16.0852 0.468122 18.3188 0.372519 20.5882H0V92.6885H0.372519C0.449915 94.9204 0.936946 97.1192 1.80938 99.1754C3.79382 104.252 7.58386 108.417 12.4528 110.873C14.4716 111.921 16.6456 112.64 18.892 113C18.9648 112.958 19.0474 112.936 19.1315 112.936C19.2156 112.936 19.2982 112.958 19.371 113H94.4069H94.7794H96.1098C100.112 112.149 103.801 110.208 106.769 107.393C109.737 104.578 111.868 100.998 112.926 97.0487C113.506 94.882 113.774 92.6442 113.725 90.4023V21.2794ZM88.3933 76.0458C88.3072 76.2682 88.3072 76.5148 88.3933 76.7372C88.2625 77.589 88.0486 78.4258 87.7547 79.2363L86.7969 82.9049L86.5308 83.7025C86.5308 84.5003 85.8922 85.1383 84.9342 85.2445H84.5617C84.4185 85.3319 84.2595 85.3903 84.0937 85.416C83.9279 85.442 83.7585 85.435 83.5954 85.3955C83.4323 85.3559 83.2787 85.2847 83.1432 85.186C83.0076 85.087 82.8929 84.9624 82.8055 84.8192C82.3169 84.1959 82.0006 83.4552 81.8886 82.6712C81.7765 81.8875 81.8725 81.0879 82.1669 80.3527L82.4863 79.6085C82.566 79.2584 82.566 78.895 82.4863 78.5449C82.2227 77.7874 82.2227 76.9629 82.4863 76.2054C82.5748 75.9819 82.711 75.7803 82.8859 75.6151C83.0605 75.4496 83.2692 75.3244 83.4974 75.2483L84.8278 74.6634C85.0113 74.5972 85.1777 74.4914 85.3158 74.3535C85.4538 74.2157 85.5597 74.0491 85.6261 73.8658C85.9453 73.1747 86.4775 72.643 86.85 71.9516C87.2225 71.2605 87.1694 71.2605 87.595 71.2605C88.0208 71.2605 88.2338 71.6858 88.4466 72.0581C88.5256 72.3541 88.5256 72.6658 88.4466 72.9621V74.0254C88.6607 74.6851 88.642 75.3983 88.3933 76.0458ZM89.8834 48.7159C89.6779 49.4196 89.3924 50.0976 89.0319 50.7363C88.4466 51.853 87.7547 52.9163 87.1694 54.033C86.5602 55.0577 85.7447 55.9447 84.7745 56.6383C82.9191 58.0047 81.2392 59.5942 79.7722 61.3705C79.023 62.3258 78.3805 63.3598 77.8565 64.4545C77.777 64.5919 77.7352 64.7479 77.7352 64.9065C77.7352 65.0652 77.777 65.2211 77.8565 65.3585C78.109 66.0829 78.2872 66.8311 78.3887 67.5916C78.4515 68.1187 78.6961 68.6075 79.0803 68.9741C79.2306 69.1476 79.3417 69.3513 79.4061 69.5716C79.4702 69.7917 79.4863 70.0234 79.4528 70.2503C79.3464 71.2221 79.3464 72.2027 79.4528 73.1747C79.4955 73.9479 79.2848 74.7138 78.8526 75.3565C78.4205 75.9995 77.7905 76.484 77.0582 76.7372C76.266 76.9363 75.5804 77.431 75.1424 78.1196C75.1424 78.3854 74.7166 78.4387 74.5036 78.5981C74.2118 78.7465 73.982 78.9938 73.8553 79.2955C73.7286 79.5974 73.7132 79.9344 73.8119 80.2465C73.8119 80.6187 73.812 81.0441 74.078 81.4694C74.2902 82.3429 74.2902 83.2543 74.078 84.128C74.0265 84.3335 73.9201 84.5213 73.7702 84.6711C73.6202 84.821 73.4322 84.9272 73.2264 84.9787C72.8881 85.0463 72.5639 85.1724 72.2687 85.3509C72.1002 85.4 71.9542 85.5069 71.8569 85.6526C71.7595 85.7986 71.7168 85.9742 71.7365 86.1485C71.7372 87.4229 71.3057 88.6598 70.5124 89.6578C69.5408 91.0586 68.474 92.3911 67.3195 93.6456C66.7974 94.2404 66.1491 94.7114 65.4218 95.0242C64.6944 95.337 63.9065 95.4836 63.1152 95.4534C62.3899 95.3788 61.6587 95.3788 60.9334 95.4534L59.4965 95.7194C59.1258 95.7709 58.7497 95.7709 58.379 95.7194C58.1344 95.7264 57.8907 95.6852 57.6621 95.5982C57.4332 95.5112 57.2241 95.3799 57.0461 95.212C56.8683 95.0441 56.7251 94.8429 56.6252 94.6196C56.5252 94.3966 56.47 94.1559 56.4633 93.9116C56.4373 93.7889 56.4373 93.6621 56.4633 93.5394C56.538 92.7696 56.3903 91.9944 56.0375 91.306C55.52 90.0694 54.8398 88.9073 54.0151 87.85C53.6586 87.4224 53.4201 86.9092 53.3234 86.3612L52.8445 83.224C52.4759 81.9743 51.8807 80.8027 51.0883 79.7678L50.29 78.4918C50.0873 78.1314 49.9604 77.7331 49.9175 77.3221C49.6934 75.4994 50.0078 73.6511 50.8222 72.005L51.4607 71.0478C51.6308 70.7769 51.721 70.4636 51.721 70.1438C51.721 69.8241 51.6308 69.5108 51.4607 69.2401C51.2554 68.6204 51.1303 67.9772 51.0883 67.3259C50.8285 66.192 50.454 65.0873 49.9708 64.0292C49.5719 63.414 49.1081 62.8436 48.587 62.3276L47.8953 61.6896C47.5463 61.3647 47.3001 60.945 47.1865 60.4821C47.0731 60.0193 47.0975 59.5334 47.2567 59.0843C47.2567 58.4461 47.5759 57.8081 47.6823 57.1701C47.7085 56.8338 47.7085 56.4962 47.6823 56.1599C47.685 55.8753 47.5838 55.5996 47.3977 55.3842C47.2116 55.1691 46.9534 55.0287 46.6712 54.9901H44.7022C44.4928 55.0107 44.2816 54.9716 44.0934 54.8775C43.905 54.7835 43.7471 54.6382 43.6378 54.4583C43.4941 54.2576 43.3694 54.0441 43.2653 53.8203C43.1198 53.5539 42.8872 53.3453 42.6064 53.2291C42.3256 53.1132 42.0136 53.0964 41.722 53.1823C41.0527 53.2237 40.3913 53.3487 39.753 53.5545L38.0502 54.0861C37.3771 54.367 36.6499 54.4942 35.9214 54.4583H34.5379C33.6556 54.3677 32.7644 54.4768 31.9302 54.7774C31.733 54.8798 31.5139 54.9334 31.2916 54.9334C31.0691 54.9334 30.8502 54.8798 30.653 54.7774C29.0635 53.9844 27.5647 53.0219 26.1827 51.9061C25.7404 51.5538 25.393 51.097 25.1716 50.5768C24.9268 50.1004 24.6031 49.6689 24.2136 49.3008C23.6284 48.7159 23.0962 48.131 22.5108 47.5992C22.1832 47.4101 21.9028 47.149 21.6908 46.8358C21.4788 46.5228 21.3406 46.1657 21.2868 45.7914C21.2841 45.5702 21.2354 45.3521 21.1438 45.1507C21.0522 44.9491 20.9197 44.769 20.7546 44.6217C20.7093 44.5817 20.673 44.5326 20.6482 44.4777C20.6233 44.4226 20.6105 44.3629 20.6105 44.3026C20.6105 44.2422 20.6233 44.1825 20.6482 44.1276C20.673 44.0727 20.7093 44.0234 20.7546 43.9837L21.2868 43.4519C21.7964 42.4396 22.1037 41.3381 22.1915 40.2083C22.2968 39.4836 22.1858 38.7436 21.8722 38.0817C21.7137 37.7969 21.6306 37.4767 21.6306 37.151C21.6306 36.8253 21.7137 36.5051 21.8722 36.2206C22.4795 35.1597 23.0131 34.0582 23.4687 32.9239C23.524 32.5657 23.6507 32.2222 23.8412 31.9137C24.267 31.3288 24.7458 30.797 25.2247 30.2121C25.353 30.0573 25.4956 29.9149 25.6505 29.7868L27.5132 28.4575C27.8251 28.2841 28.0838 28.0292 28.262 27.7203C28.44 27.4111 28.5308 27.0594 28.5243 26.7028C28.4723 26.3681 28.4723 26.0275 28.5243 25.6926C28.792 24.7337 29.3725 23.8916 30.1739 23.2999L31.0786 22.5555C31.4299 22.2818 31.7199 21.9377 31.9302 21.5453C31.9833 21.336 32.0732 21.1379 32.1963 20.9604C32.2562 20.8925 32.3298 20.8381 32.4125 20.8009C32.4949 20.7636 32.5846 20.7444 32.6752 20.7444C32.7658 20.7444 32.8555 20.7636 32.9379 20.8009C33.0206 20.8381 33.0942 20.8925 33.1541 20.9604C34.0109 21.3191 34.9515 21.4297 35.8681 21.2794C36.3542 21.2789 36.8313 21.1505 37.2519 20.9072C39.0425 19.9035 41.0529 19.3556 43.1058 19.3121H43.8508C44.3956 19.206 44.9556 19.206 45.5005 19.3121C46.3184 19.321 47.1307 19.1768 47.8953 18.8867C48.0794 18.7487 48.3035 18.674 48.5339 18.674C48.7641 18.674 48.9882 18.7487 49.1725 18.8867C49.1725 18.8867 49.8642 18.8867 49.9708 19.3121C50.0772 19.7375 49.9708 19.7906 49.6514 20.0565C49.5945 20.2292 49.5945 20.4155 49.6514 20.5882C49.76 20.7239 49.8382 20.8811 49.8813 21.0494C49.9243 21.2177 49.9308 21.3932 49.9005 21.5642C49.8705 21.7352 49.8041 21.8979 49.706 22.0413C49.608 22.1847 49.4806 22.3057 49.3322 22.396C49.3146 22.5195 49.3146 22.6447 49.3322 22.7681C49.3322 22.7681 49.3322 22.7681 49.3322 23.0341H49.6514C50.3089 23.3689 51.0063 23.619 51.7268 23.7786L53.3765 24.0975C53.5873 24.1278 53.7865 24.2123 53.9543 24.3427C54.1224 24.4733 54.2534 24.6453 54.3345 24.8419C54.4129 25.0153 54.5306 25.1683 54.6783 25.2883C54.8263 25.4083 55 25.4921 55.1859 25.533L57.2082 26.3308C57.3842 26.3615 57.5643 26.3615 57.7404 26.3308C58.0596 26.3308 58.2193 26.3308 58.379 25.9052C58.4305 25.6063 58.4305 25.3005 58.379 25.0015C58.389 24.7504 58.4762 24.5086 58.6284 24.309C58.7807 24.1092 58.991 23.961 59.2304 23.8848H60.1351C60.4073 23.819 60.6919 23.8236 60.9618 23.8979C61.232 23.9723 61.4784 24.1142 61.6784 24.3101C61.9919 24.5915 62.38 24.7762 62.7961 24.8419L66.6276 25.799C67.2253 26.0386 67.8925 26.0386 68.4902 25.799C69.1114 25.5884 69.7848 25.5884 70.406 25.799H72.3751C72.9073 25.799 73.2798 25.799 73.3328 26.5435C73.3861 27.2877 73.3328 27.1815 73.3328 27.4472C73.5964 28.2231 73.5964 29.0643 73.3328 29.8399C73.2373 29.9895 73.1101 30.1165 72.9604 30.2121C72.6943 30.2121 72.6943 30.5312 72.9604 30.797C73.2264 31.063 73.3861 31.9137 73.6522 32.4455C74.1234 33.1287 74.4826 33.8824 74.7166 34.6786C74.8309 34.9814 75.013 35.2542 75.2488 35.4761C75.9974 36.2233 76.4187 37.2369 76.4196 38.2943C76.4124 38.5895 76.4652 38.8831 76.575 39.1574C76.6848 39.4316 76.849 39.6806 77.0582 39.8895C77.6624 40.4445 78.0882 41.1661 78.2821 41.963C78.4966 42.5892 78.9071 43.1298 79.4528 43.505C80.3044 44.1963 81.0494 44.9939 81.8477 45.7383C82.1721 46.0561 82.3943 46.4633 82.4863 46.9081C82.4863 47.7588 83.0716 48.0779 83.9762 47.9183C84.7041 47.9391 85.4323 47.9215 86.1583 47.865C87.0917 47.7674 88.0059 47.5344 88.8724 47.1739H89.1916C89.258 47.1495 89.3287 47.14 89.3991 47.1461C89.4696 47.1522 89.5378 47.1739 89.5988 47.2094C89.6598 47.2451 89.7122 47.2937 89.7522 47.352C89.7922 47.4101 89.8188 47.4763 89.8301 47.5461C89.9517 47.9244 89.9702 48.3281 89.8834 48.7159Z" fill="white"/>
<path d="M445 7.93455C444.614 6.98449 443.981 6.15413 443.168 5.52824C442.353 4.90236 441.388 4.50338 440.369 4.37207C440.313 4.40028 440.25 4.41494 440.184 4.41494C440.118 4.41494 440.055 4.40028 439.999 4.37207H439.36C439.301 4.40028 439.238 4.41494 439.172 4.41494C439.109 4.41494 439.046 4.40028 438.987 4.37207C438.013 4.50308 437.096 4.90019 436.337 5.5195C435.576 6.1388 435 6.95622 434.677 7.88138L431.749 15.219L427.546 25.4279C426.003 29.203 424.458 32.9783 422.969 36.7534L417.647 49.1423L412.325 61.6907C412.325 61.6907 412.325 62.0098 411.952 62.0098C411.724 61.5813 411.53 61.1372 411.367 60.6805C409.237 55.3634 407.164 50.0463 405.088 45.1014C403.012 40.1563 401.309 34.7861 399.127 29.6817C398.808 28.8256 398.435 27.9907 398.011 27.1825C397.667 26.4636 397.155 25.8401 396.513 25.3671C395.874 24.8941 395.126 24.5863 394.338 24.4708C392.917 24.2848 391.478 24.6254 390.292 25.4279C389.802 25.6973 389.382 26.0801 389.07 26.5445C388.501 27.3057 388.146 28.2054 388.042 29.1499C387.941 30.0943 388.092 31.0492 388.483 31.9148C389.016 33.3505 389.601 34.7861 390.186 36.2216L396.253 51.163C397.796 55.0443 399.393 58.9258 400.99 62.8605C403.012 67.9118 405.034 72.91 407.109 77.9611C407.392 78.7571 407.787 79.509 408.28 80.1945C409.07 81.2069 410.202 81.8994 411.465 82.1437C412.725 82.388 414.033 82.1679 415.144 81.5238C416.326 80.8049 417.241 79.7226 417.753 78.4398C419.987 72.8567 422.224 67.3269 424.512 61.744C426.8 56.1609 429.034 50.4185 431.322 44.7823L436.113 33.0845C437.284 30.0539 438.508 27.0763 439.732 24.0985L444.203 12.9327L445 10.9121V7.98773V7.93455Z" fill="white"/>
<path d="M237.677 69.7804C236.347 66.9093 235.071 64.0911 233.74 61.2731C231.877 57.2851 230.015 53.2973 228.418 49.3095C226.821 45.3216 224.906 41.8122 223.096 38.0371L217.775 26.1267C216.231 22.7238 214.635 19.3209 213.038 15.9179L211.122 11.8237C210.537 10.5476 210.005 9.2183 209.366 7.99535C209.019 7.12425 208.447 6.36049 207.709 5.78152C206.97 5.20255 206.092 4.829 205.162 4.69873H204.79H203.512C203.446 4.73152 203.374 4.74859 203.3 4.74859C203.226 4.74859 203.153 4.73152 203.087 4.69873C202.754 4.76262 202.443 4.90889 202.182 5.12411H201.81C200.786 5.69159 199.967 6.56572 199.468 7.62315L196.967 12.9403L190.049 27.2965C187.92 31.8694 185.844 36.442 183.716 40.9616C181.587 45.4811 179.671 49.6284 177.702 53.9887C177.258 54.8499 176.867 55.7379 176.531 56.6471C176.168 57.5565 176.095 58.5563 176.324 59.5087C176.552 60.4611 177.071 61.319 177.809 61.9642C178.377 62.515 179.054 62.9412 179.796 63.2158C180.538 63.4904 181.329 63.6074 182.119 63.5593C183.33 63.5372 184.488 63.063 185.366 62.2302C185.986 61.5965 186.491 60.8586 186.855 60.0502L190.049 52.9782L196.381 39.3133L201.703 27.1903L202.448 25.8078C203.034 25.0634 203.193 24.1063 203.725 23.3087C203.815 23.3331 203.896 23.3803 203.961 23.4454C204.026 23.5107 204.073 23.5919 204.098 23.6809L204.949 25.4887L210.963 38.4093L214.794 46.704L221.5 61.1135C223.043 64.5697 224.64 67.9195 226.236 71.3755L227.833 74.8848C228.524 76.3737 229.164 77.8624 229.909 79.2982C230.341 80.3292 231.088 81.1975 232.044 81.7799C232.999 82.362 234.115 82.6287 235.229 82.5415C236.32 82.4789 237.363 82.0829 238.22 81.4076C239.076 80.7326 239.704 79.8103 240.02 78.7664C240.413 77.3274 240.262 75.7938 239.593 74.4595C239.114 72.8644 238.423 71.3224 237.677 69.7804Z" fill="white"/>
<path d="M370.177 55.4693C369.492 52.5891 368.017 49.9565 365.921 47.8657C364.207 46.1472 362.23 44.7114 360.066 43.6119C358.218 42.6779 356.296 41.8955 354.319 41.2724C351.71 40.3153 348.997 39.6242 346.337 38.9328C343.054 38.1694 339.82 37.2107 336.65 36.0617C335.137 35.4823 333.675 34.7706 332.286 33.9349C331.015 33.1888 329.966 32.1133 329.255 30.8219C328.543 29.5303 328.193 28.0708 328.243 26.5971C328.279 25.6626 328.424 24.7351 328.668 23.8322C329.21 21.632 330.583 19.7266 332.501 18.5151C334.143 17.4927 335.941 16.7388 337.823 16.282C340.095 15.679 342.442 15.3927 344.794 15.4312C346.206 15.4312 347.559 14.871 348.557 13.8739C349.553 12.8767 350.116 11.5243 350.116 10.1141C350.127 8.82386 349.671 7.57304 348.828 6.59478C347.986 5.61649 346.818 4.97752 345.539 4.79695H344.261C341.076 4.51137 337.868 4.6905 334.735 5.32866C330.17 6.45179 326.016 8.84908 322.761 12.2409C319.582 15.5725 317.696 19.9273 317.439 24.5235C317.269 26.6751 317.396 28.8397 317.811 30.9573C318.218 33.1947 319.067 35.3281 320.314 37.2315C321.963 39.6886 324.145 41.7423 326.7 43.2397C329.11 44.6979 331.683 45.8753 334.362 46.7491C338.035 47.9722 341.866 48.8759 345.591 49.9395C348.051 50.5404 350.47 51.3043 352.829 52.2257C354.423 52.8569 355.928 53.6972 357.299 54.7248C358.431 55.641 359.248 56.8861 359.641 58.2873C360.118 60.3393 359.906 62.4909 359.04 64.4119C358.175 66.3326 356.705 67.9171 354.85 68.9217C351.943 70.5145 348.695 71.3896 345.379 71.4739C344.017 71.6054 342.643 71.6054 341.281 71.4739C339.648 71.2795 338.031 70.9776 336.438 70.5699C333.996 69.919 331.69 68.8387 329.625 67.3797C328.649 66.6682 327.741 65.8671 326.912 64.9868C326.327 64.3178 325.51 63.8988 324.624 63.817C323.373 63.5666 322.076 63.6961 320.899 64.1893C320.203 64.4609 319.582 64.8905 319.083 65.4445C318.584 65.9984 318.222 66.661 318.026 67.3797C317.75 68.3079 317.732 69.2935 317.976 70.2305C318.22 71.1677 318.715 72.0204 319.408 72.6968C321.466 74.8372 323.856 76.6326 326.485 78.0139C329.515 79.6006 332.761 80.7295 336.12 81.3637C338.496 81.8767 340.924 82.1264 343.357 82.1081H343.782C346.063 82.1244 348.342 81.9465 350.595 81.5763C354.222 80.8789 357.699 79.5468 360.866 77.6417C363.687 75.8988 366.038 73.4883 367.71 70.6228C369.379 67.7576 370.319 64.5255 370.443 61.2117V59.1381C370.477 57.9094 370.389 56.6802 370.177 55.4693Z" fill="white"/>
<path d="M294.183 50.0993C296.754 48.4963 298.965 46.378 300.675 43.8782C302.559 40.9424 303.743 37.6132 304.134 34.148C304.321 32.2204 304.321 30.2795 304.134 28.3522C304.086 26.5641 303.872 24.7841 303.497 23.0351C302.86 20.2987 301.721 17.7032 300.142 15.3784C298.482 12.9729 296.368 10.914 293.917 9.31688C289.257 5.97167 283.689 4.11768 277.951 3.99976C277.099 3.99976 276.196 3.99976 275.344 3.99976C273.237 4.19943 271.154 4.59097 269.119 5.16951C263.953 6.56022 259.356 9.53594 255.972 13.6769C254.676 15.3087 253.584 17.0947 252.726 18.9941C251.346 22.3633 250.711 25.991 250.865 29.6284C250.876 30.4712 251.088 31.299 251.484 32.0437C251.879 32.7884 252.444 33.4286 253.135 33.9116C253.826 34.3948 254.624 34.7066 255.459 34.8215C256.295 34.9365 257.147 34.8515 257.942 34.5733C258.798 34.3105 259.573 33.8365 260.196 33.1952C260.82 32.554 261.269 31.7662 261.509 30.9044C261.585 30.1444 261.585 29.3782 261.509 28.618C261.529 26.4247 262.037 24.2632 262.997 22.2907C263.93 20.5187 265.306 19.017 266.989 17.9306C268.168 17.1613 269.415 16.5027 270.714 15.9633C272.69 15.2156 274.775 14.8023 276.887 14.7404C278.337 14.7416 279.783 14.9021 281.197 15.2189C283.589 15.7642 285.859 16.7369 287.904 18.0902C289.564 19.2469 290.888 20.8254 291.735 22.6629C292.629 24.6187 293.117 26.7347 293.171 28.884C293.37 30.9874 293.21 33.1093 292.693 35.1582C292.135 37.3219 290.811 39.2106 288.968 40.4753C286.374 42.1665 283.54 43.4571 280.56 44.3037C278.057 45.1013 275.238 45.7924 273.056 46.6433C269.923 47.6244 266.907 48.9437 264.061 50.578C260.472 52.6601 257.434 55.5716 255.202 59.0688C252.972 62.5657 251.612 66.5462 251.237 70.6766C251.237 71.6337 251.237 72.5908 250.971 73.601C250.865 74.7862 250.865 75.9783 250.971 77.1635C250.971 78.5737 251.531 79.9261 252.53 80.9234C253.528 81.9205 254.881 82.4806 256.293 82.4806C257.316 82.4785 258.317 82.1813 259.177 81.6249C260.036 81.0685 260.716 80.2764 261.136 79.3435C261.332 78.8467 261.475 78.3296 261.561 77.8017C261.615 76.7921 261.615 75.7803 261.561 74.7708C261.594 72.7716 261.897 70.7862 262.466 68.8688C263.112 66.5559 264.319 64.4376 265.979 62.7008C267.321 61.3459 268.888 60.2309 270.607 59.4044C273.196 58.1571 275.884 57.1256 278.645 56.3204C281.197 55.4697 283.964 54.7784 286.361 53.8744C289.092 52.8933 291.714 51.6279 294.183 50.0993Z" fill="white"/>
<path d="M364.536 22.821C365.948 22.821 367.301 22.2607 368.3 21.2636C369.298 20.2664 369.858 18.914 369.858 17.5038C369.858 16.0936 369.298 14.7412 368.3 13.744C367.301 12.7469 365.948 12.1866 364.536 12.1866C363.127 12.1866 361.771 12.7469 360.773 13.744C359.777 14.7412 359.214 16.0936 359.214 17.5038C359.214 18.914 359.777 20.2664 360.773 21.2636C361.771 22.2607 363.127 22.821 364.536 22.821Z" fill="white"/>
<path d="M385.237 15.1659C386.649 15.1659 388.002 14.6057 389 13.6085C389.998 12.6114 390.559 11.2589 390.559 9.84875C390.559 8.79713 390.247 7.76912 389.662 6.89471C389.077 6.02031 388.246 5.33881 387.274 4.93637C386.301 4.53393 385.232 4.42862 384.2 4.63378C383.168 4.83894 382.219 5.34536 381.476 6.08897C380.73 6.83258 380.224 7.78002 380.019 8.81144C379.813 9.84285 379.919 10.9119 380.321 11.8835C380.724 12.8551 381.406 13.6855 382.282 14.2698C383.156 14.854 384.184 15.1659 385.237 15.1659Z" fill="white"/>
<path d="M299.024 71.3661C297.615 71.3661 296.259 71.9263 295.263 72.9235C294.265 73.9206 293.702 75.2729 293.702 76.6832C293.702 78.0934 294.265 79.4458 295.263 80.4429C296.259 81.44 297.615 82.0003 299.024 82.0003C300.436 82.0003 301.789 81.44 302.787 80.4429C303.786 79.4458 304.346 78.0934 304.346 76.6832C304.346 75.2729 303.786 73.9206 302.787 72.9235C301.789 71.9263 300.436 71.3661 299.024 71.3661Z" fill="white"/>
<path d="M172.633 82.1094C174.045 82.1094 175.398 81.5494 176.396 80.5523C177.394 79.5549 177.955 78.2026 177.955 76.7923C177.955 75.3823 177.394 74.0297 176.396 73.0326C175.398 72.0355 174.045 71.4752 172.633 71.4752C171.222 71.4752 169.868 72.0355 168.87 73.0326C167.872 74.0297 167.312 75.3823 167.312 76.7923C167.312 78.2026 167.872 79.5549 168.87 80.5523C169.868 81.5494 171.222 82.1094 172.633 82.1094Z" fill="white"/>
<path d="M268.107 94.1794H266.724C265.001 94.5193 263.456 95.4599 262.365 96.8333C261.274 98.2067 260.704 99.9237 260.763 101.677C260.732 102.657 260.899 103.634 261.253 104.549C261.61 105.462 262.15 106.295 262.839 106.994C263.505 107.736 264.33 108.32 265.249 108.706C266.169 109.093 267.165 109.27 268.161 109.227C269.177 109.264 270.189 109.063 271.113 108.638C272.037 108.213 272.85 107.577 273.483 106.781C274.54 105.59 275.195 104.097 275.358 102.513C275.52 100.93 275.179 99.3354 274.386 97.9547C273.804 96.7969 272.905 95.8279 271.793 95.1598C270.682 94.4917 269.406 94.1518 268.107 94.1794ZM269.279 107.366H268.906H267.736C266.709 107.345 265.71 107.027 264.861 106.451C264.011 105.876 263.345 105.067 262.945 104.123C262.487 103.215 262.27 102.205 262.317 101.19C262.362 100.174 262.672 99.1883 263.212 98.3267C263.677 97.4535 264.377 96.7271 265.231 96.2292C266.087 95.7314 267.065 95.4819 268.055 95.5087C268.827 95.5359 269.584 95.7307 270.273 96.0796C270.962 96.4286 271.567 96.9233 272.046 97.5292C272.688 98.2892 273.133 99.1953 273.343 100.168C273.551 101.14 273.517 102.149 273.243 103.105C272.97 104.061 272.466 104.935 271.773 105.65C271.082 106.366 270.226 106.9 269.279 107.207V107.366Z" fill="white"/>
<path d="M341.706 94.1762C341.195 94.0946 340.673 94.0946 340.163 94.1762C338.708 94.5229 337.405 95.3238 336.438 96.4624C335.79 97.1809 335.29 98.0209 334.972 98.9339C334.651 99.8467 334.516 100.814 334.574 101.779C334.667 103.434 335.281 105.017 336.332 106.299C337.188 107.354 338.335 108.133 339.632 108.539C340.929 108.946 342.316 108.962 343.621 108.585C345.189 108.12 346.544 107.123 347.455 105.767C348.385 104.43 348.853 102.823 348.783 101.195C348.742 99.64 348.223 98.1359 347.294 96.8877C346.641 96.0287 345.794 95.3356 344.825 94.8644C343.854 94.3931 342.785 94.1574 341.706 94.1762ZM345.485 105.874C344.861 106.525 344.084 107.008 343.224 107.277C342.365 107.546 341.45 107.592 340.567 107.412C339.684 107.231 338.862 106.829 338.177 106.244C337.491 105.659 336.967 104.909 336.65 104.066C336.016 102.65 335.95 101.044 336.465 99.5801C336.978 98.116 338.035 96.9051 339.417 96.1966C340.262 95.7665 341.213 95.588 342.157 95.6825C343.099 95.7767 343.996 96.1397 344.739 96.7284C345.44 97.2462 346.02 97.9083 346.44 98.6702C346.86 99.4318 347.113 100.275 347.179 101.143C347.244 102.011 347.122 102.882 346.82 103.698C346.519 104.515 346.045 105.257 345.431 105.874H345.485Z" fill="white"/>
<path d="M200.468 103.801C199.882 102.791 199.989 102.738 200.84 102.366C201.641 101.914 202.268 101.209 202.625 100.362C202.981 99.5152 203.046 98.5742 202.809 97.6864C202.606 96.7903 202.108 95.9885 201.393 95.4097C200.679 94.8312 199.791 94.5093 198.871 94.4962C198.02 94.4962 197.115 94.4962 196.263 94.4962H194.56C193.975 94.4962 193.922 94.4962 193.922 95.1876V107.949C193.922 108.852 193.922 108.852 194.88 108.852C195.838 108.852 195.518 108.852 195.518 108.268V104.652C195.518 102.632 195.252 102.95 197.328 102.95C197.524 102.922 197.724 102.959 197.897 103.055C198.07 103.151 198.206 103.301 198.286 103.482L199.297 105.184L201.106 108.374C201.106 108.374 201.106 108.799 201.638 108.852C202.08 108.908 202.527 108.908 202.969 108.852C203.034 108.681 203.034 108.492 202.969 108.321L200.468 103.801ZM199.137 101.355H196.104C195.678 101.355 195.572 101.355 195.572 100.824V98.5904V96.304C195.572 95.9851 195.572 95.8255 196.051 95.8255H199.084C199.585 95.8454 200.07 96.0122 200.476 96.3053C200.884 96.5985 201.195 97.0048 201.372 97.4738C201.651 98.1326 201.669 98.8727 201.422 99.5442C201.175 100.216 200.682 100.768 200.042 101.09C199.76 101.234 199.453 101.323 199.137 101.355Z" fill="white"/>
<path d="M292.695 102.153C291.703 101.536 290.601 101.121 289.449 100.93C288.755 100.93 288.064 100.664 287.425 100.451C287.036 100.357 286.661 100.214 286.309 100.026C286.069 99.878 285.866 99.6804 285.71 99.447C285.554 99.2135 285.448 98.9495 285.403 98.6725C285.358 98.3956 285.374 98.112 285.446 97.841C285.52 97.57 285.649 97.3181 285.83 97.1015C286.212 96.6326 286.706 96.2669 287.267 96.0382C288.125 95.8511 289.015 95.8511 289.873 96.0382C290.4 96.061 290.912 96.1964 291.38 96.4348C291.85 96.6735 292.261 97.0096 292.589 97.4207C293.013 97.9524 293.013 97.9524 293.598 97.7398C293.664 97.733 293.725 97.7095 293.779 97.6715C293.831 97.6338 293.874 97.5827 293.899 97.5235C293.926 97.4643 293.937 97.3992 293.933 97.3346C293.926 97.2699 293.903 97.2078 293.865 97.1549C293.544 96.4825 293.024 95.9254 292.374 95.5595C291.269 94.8827 290 94.5154 288.703 94.4962C287.883 94.5114 287.072 94.6736 286.309 94.9747C285.611 95.2495 284.992 95.687 284.499 96.2509C284.176 96.6523 283.946 97.1187 283.822 97.6177C283.698 98.1167 283.684 98.6368 283.779 99.1419C283.876 99.6472 284.079 100.126 284.38 100.544C284.678 100.963 285.064 101.312 285.509 101.568L286.255 101.887C287.018 102.156 287.802 102.369 288.597 102.525C289.324 102.646 290.038 102.842 290.725 103.11C291.089 103.233 291.43 103.413 291.737 103.642C292.073 103.904 292.311 104.274 292.408 104.69C292.505 105.107 292.455 105.544 292.268 105.928C291.947 106.598 291.373 107.114 290.673 107.364C289.702 107.759 288.631 107.833 287.614 107.574C286.6 107.316 285.694 106.739 285.03 105.928C284.972 105.876 284.897 105.847 284.818 105.847C284.739 105.847 284.664 105.876 284.606 105.928L283.914 106.194C283.914 106.194 283.594 106.46 283.914 106.672C284.145 107.187 284.49 107.642 284.924 108.002C285.81 108.709 286.867 109.17 287.989 109.338C289.11 109.506 290.255 109.375 291.31 108.959C291.979 108.702 292.591 108.324 293.119 107.842C293.56 107.491 293.905 107.039 294.131 106.523C294.355 106.008 294.45 105.446 294.409 104.885C294.366 104.325 294.19 103.783 293.89 103.307C293.591 102.831 293.18 102.435 292.695 102.153Z" fill="white"/>
<path d="M235.803 99.0179L234.151 94.9767C234.104 94.8039 234 94.652 233.855 94.5458C233.711 94.4398 233.532 94.3855 233.354 94.3919C231.969 94.3919 232.13 94.3919 231.599 95.615V96.0403C230.32 99.6558 228.99 103.272 227.659 106.675C227.494 107.092 227.352 107.518 227.235 107.951C227.235 108.376 227.235 108.482 227.553 108.536H228.192C228.323 108.541 228.452 108.501 228.558 108.424C228.664 108.347 228.741 108.236 228.777 108.11L229.575 106.037C229.602 105.877 229.688 105.733 229.817 105.634C229.945 105.535 230.106 105.489 230.268 105.505C232.13 105.505 234.045 105.505 235.961 105.505C236.15 105.489 236.34 105.547 236.487 105.665C236.636 105.784 236.733 105.955 236.76 106.143L237.239 107.525L237.558 108.216C237.583 108.296 237.63 108.365 237.698 108.413C237.766 108.461 237.847 108.486 237.93 108.482C238.33 108.591 238.753 108.591 239.155 108.482C239.229 108.24 239.229 107.981 239.155 107.738C237.985 104.973 236.918 101.995 235.803 99.0179ZM230.481 104.335C230.481 104.335 230.481 104.335 230.481 103.963C231.384 101.57 232.236 99.2305 233.142 96.7314C233.555 97.5748 233.91 98.4454 234.206 99.337C234.472 100.135 234.791 100.985 235.109 101.783C235.45 102.632 235.735 103.502 235.961 104.388C234.131 104.434 232.299 104.345 230.481 104.122V104.335Z" fill="white"/>
<path d="M179.873 107.469L175.616 95.2391C175.636 95.0802 175.636 94.9195 175.616 94.7606C175.588 94.6788 175.539 94.6061 175.474 94.5498C175.408 94.4937 175.328 94.4562 175.243 94.4415C174.764 94.4415 174.232 94.4415 173.806 94.4415C173.381 94.4415 173.434 95.0797 173.274 95.4517C171.838 99.3866 170.454 103.268 169.017 107.15C169.017 107.575 168.751 108 168.591 108.479C168.978 108.553 169.375 108.553 169.762 108.479C169.868 108.466 169.969 108.425 170.053 108.36C170.138 108.294 170.203 108.207 170.241 108.107V107.628L170.72 106.352C171.039 105.448 171.039 105.448 171.891 105.448H177.212C177.342 105.451 177.467 105.494 177.571 105.57C177.676 105.646 177.755 105.752 177.798 105.874C177.798 106.139 177.798 106.458 178.064 106.724C178.33 106.99 178.436 107.681 178.596 108.107C178.634 108.207 178.699 108.294 178.783 108.36C178.868 108.425 178.969 108.466 179.075 108.479C180.086 108.479 180.405 108.479 179.926 107.416C179.926 107.628 179.873 107.522 179.873 107.469ZM176.68 104.225H171.838C171.412 104.225 171.358 104.225 171.465 103.747C171.584 103.349 171.726 102.958 171.891 102.577C172.583 100.556 173.328 98.5889 174.126 96.4089C174.483 96.9673 174.752 97.5771 174.924 98.2169L176.787 103.534V104.066C176.772 104.13 176.734 104.187 176.68 104.225Z" fill="white"/>
<path d="M395.402 107.525C394.123 104.016 392.847 100.56 391.623 96.8909L390.825 94.7109C390.812 94.6404 390.784 94.5733 390.746 94.5134C390.705 94.4535 390.656 94.402 390.595 94.3624C390.536 94.3227 390.468 94.2953 390.398 94.2822C390.328 94.2689 390.256 94.27 390.186 94.2856H389.759C389.759 94.2856 389.759 94.2856 389.44 94.2856C389.346 94.2623 389.246 94.2594 389.151 94.2768C389.054 94.2944 388.964 94.3319 388.885 94.3873C388.803 94.4425 388.736 94.5141 388.684 94.5973C388.634 94.6807 388.602 94.7738 388.589 94.8705C388.589 94.8705 388.589 94.8705 388.589 95.1894L384.067 107.632C383.694 108.589 383.746 108.642 384.704 108.642C385.661 108.642 385.397 108.642 385.503 108.11C385.609 107.578 385.982 106.887 386.194 106.249C386.222 106.061 386.319 105.89 386.468 105.772C386.615 105.653 386.804 105.596 386.992 105.611C388.837 105.611 390.611 105.611 392.314 105.611C392.51 105.589 392.707 105.636 392.872 105.742C393.037 105.849 393.159 106.009 393.22 106.196C393.22 106.887 393.698 107.525 393.911 108.163C393.947 108.304 394.031 108.428 394.146 108.515C394.263 108.602 394.405 108.646 394.55 108.642H394.975C395.508 108.642 395.614 108.642 395.454 108.004C395.295 107.366 395.454 107.738 395.402 107.525ZM392.368 104.282H387.046C387.046 104.282 387.046 104.016 387.046 103.91L389.601 96.8909C390.611 99.1998 391.498 101.56 392.262 103.963C392.327 104.056 392.363 104.167 392.368 104.282Z" fill="white"/>
<path d="M423.179 95.9838H429.619C429.728 95.6195 429.728 95.2317 429.619 94.8671H428.98C426.71 94.8671 424.422 94.8671 422.115 94.8671C421.975 94.8412 421.831 94.8412 421.691 94.8671C421.37 94.8671 421.264 94.8672 421.212 95.2927V108.585C421.212 109.064 421.212 109.117 421.849 109.17H429.567C429.651 109.17 429.732 109.137 429.791 109.077C429.852 109.017 429.886 108.936 429.886 108.851V108.107C429.895 108.063 429.895 108.017 429.881 107.974C429.87 107.93 429.847 107.891 429.813 107.859C429.782 107.827 429.743 107.804 429.701 107.791C429.655 107.779 429.61 107.778 429.567 107.788H423.233C422.754 107.788 422.7 107.788 422.7 107.203V103.109C422.7 102.524 422.7 102.471 423.394 102.418H427.916C428.661 102.418 428.768 102.418 428.768 101.567C428.768 100.716 428.768 100.876 428.076 100.876H427.331C426.055 100.876 424.724 100.876 423.446 100.876C422.169 100.876 422.7 100.876 422.7 100.184V97.0474C422.56 96.9839 422.45 96.867 422.395 96.7224C422.341 96.5777 422.346 96.4173 422.409 96.2763C422.472 96.1352 422.59 96.0252 422.734 95.9705C422.879 95.9156 423.039 95.9203 423.179 95.9838Z" fill="white"/>
<path d="M216.966 96.0918C217.868 95.6923 218.872 95.5809 219.84 95.7727C220.953 96.0008 221.972 96.5563 222.767 97.3678C223.246 97.8465 223.352 97.8465 223.937 97.3678C224.31 97.3678 224.363 96.9425 223.937 96.6767C223.16 95.6982 222.128 94.9526 220.955 94.5211C219.782 94.0897 218.512 93.9891 217.285 94.2307C216.399 94.3812 215.553 94.7142 214.802 95.2084C214.051 95.7027 213.41 96.3474 212.922 97.1021C212.265 98.002 211.819 99.0378 211.617 100.133C211.414 101.228 211.46 102.354 211.751 103.429C211.997 104.532 212.501 105.559 213.223 106.428C213.945 107.298 214.863 107.983 215.902 108.428C216.88 108.89 217.962 109.091 219.042 109.012C220.746 108.889 222.342 108.13 223.512 106.886C224.31 106.035 224.31 105.982 223.512 105.45C223.42 105.381 223.308 105.344 223.192 105.344C223.077 105.344 222.965 105.381 222.873 105.45C222.718 105.578 222.576 105.72 222.447 105.875C221.526 106.731 220.33 107.232 219.073 107.29C217.817 107.349 216.58 106.96 215.583 106.194C214.831 105.676 214.226 104.973 213.826 104.154C213.425 103.334 213.242 102.426 213.294 101.515C213.288 100.347 213.635 99.2036 214.29 98.2357C214.946 97.2679 215.878 96.5206 216.966 96.0918Z" fill="white"/>
<path d="M330.475 105.555L330.102 105.927C329.598 106.442 328.993 106.849 328.324 107.124C327.656 107.398 326.939 107.533 326.217 107.522C325.406 107.5 324.608 107.291 323.89 106.914C323.169 106.535 322.546 105.998 322.067 105.342C321.31 104.298 320.902 103.042 320.902 101.753C320.902 100.464 321.31 99.2076 322.067 98.1638C322.772 97.053 323.863 96.2425 325.13 95.8888C326.4 95.5354 327.753 95.664 328.932 96.2498C329.546 96.5607 330.104 96.9743 330.581 97.4727C330.902 97.8449 331.008 97.7918 331.432 97.4727H331.911C331.911 97.4727 332.178 97.1535 331.911 96.9409C331.281 96.1273 330.475 95.466 329.555 95.0056C328.634 94.5455 327.619 94.2983 326.589 94.2824C325.58 94.2467 324.572 94.444 323.651 94.859C322.727 95.2739 321.913 95.8952 321.267 96.6751C320.594 97.4548 320.084 98.3613 319.768 99.341C319.451 100.321 319.334 101.354 319.422 102.38C319.512 103.406 319.806 104.404 320.287 105.314C320.768 106.225 321.428 107.03 322.227 107.682C323.499 108.719 325.11 109.249 326.75 109.17C328.204 109.113 329.605 108.591 330.741 107.682C331.274 107.274 331.726 106.768 332.072 106.193C331.771 105.939 331.43 105.741 331.06 105.608C331.03 105.56 330.99 105.52 330.94 105.491C330.893 105.462 330.836 105.443 330.782 105.438C330.725 105.433 330.667 105.441 330.615 105.461C330.56 105.481 330.513 105.513 330.475 105.555Z" fill="white"/>
<path d="M382.309 95.1871H381.885C381.783 95.1887 381.684 95.2197 381.598 95.2762C381.514 95.3329 381.446 95.4127 381.406 95.506C381.376 95.6999 381.376 95.8972 381.406 96.0909C380.448 98.6431 379.542 101.142 378.639 103.694C378.212 104.864 377.733 106.034 377.308 107.31C377.033 107.056 376.847 106.721 376.775 106.353C375.765 103.588 374.753 101.036 373.796 98.1116C373.477 97.3138 373.211 96.4631 372.89 95.6656C372.878 95.5594 372.838 95.4588 372.772 95.3743C372.707 95.29 372.619 95.2251 372.519 95.1871H371.453V95.506" stroke="white" stroke-width="0.3"/>
<path d="M191.581 94.8138C191.568 94.7105 191.518 94.6156 191.439 94.5469C191.361 94.4782 191.26 94.4409 191.155 94.4415H183.599C183.226 94.4415 183.173 94.4415 183.12 94.9733V107.575C183.093 107.858 183.093 108.143 183.12 108.426C183.085 108.472 183.067 108.528 183.067 108.585C183.067 108.643 183.085 108.699 183.12 108.745C183.449 108.85 183.802 108.85 184.131 108.745C184.206 108.732 184.274 108.693 184.323 108.634C184.372 108.576 184.398 108.502 184.397 108.426V103.109C184.371 102.843 184.371 102.576 184.397 102.311C184.397 101.992 184.397 101.886 184.876 101.832H189.399C190.251 101.832 190.357 101.832 190.304 100.875C190.251 99.9182 190.304 100.29 189.666 100.29C189.027 100.29 187.43 100.29 186.313 100.29H184.929C184.504 100.29 184.397 100.29 184.397 99.7055C184.397 99.1206 184.397 98.0573 184.397 97.2064C184.37 96.9592 184.37 96.7094 184.397 96.4622C184.397 96.1431 184.397 96.0366 184.823 95.9835H190.144C191.262 95.9835 191.155 95.9835 191.155 94.9202L191.581 94.8138Z" fill="white"/>
<path d="M442.396 94.4424C442.253 94.4185 442.111 94.4422 441.984 94.5096C441.86 94.5771 441.761 94.6845 441.702 94.8147C441.549 94.9692 441.424 95.1491 441.329 95.3462L438.562 99.9191C438.562 99.9191 438.562 100.344 438.031 100.398L436.222 97.42L434.731 95.0273C434.731 95.0273 434.465 94.6551 434.252 94.6551C434.04 94.6551 433.349 94.6551 432.922 94.6551C432.497 94.6551 433.24 95.3462 433.401 95.7184V95.9844L437.074 101.886C437.175 102.197 437.175 102.533 437.074 102.844V108.161C437.074 108.533 437.074 108.639 437.605 108.692C438.138 108.746 438.668 108.692 438.668 107.629V103.003C438.659 102.482 438.788 101.968 439.041 101.514L443.033 95.7184C443.033 95.3995 443.618 95.0804 443.46 94.8147C443.299 94.5487 442.768 94.4956 442.396 94.4424Z" fill="white"/>
<path d="M258.102 94.3914C255.014 94.3914 251.929 94.3914 248.843 94.3914C247.883 94.3914 247.619 94.7636 247.883 95.7207C248.15 96.6778 247.883 95.7207 248.15 95.9865H252.247C252.514 95.9865 252.674 95.9865 252.674 96.4118V107.525C252.645 107.808 252.645 108.093 252.674 108.376V108.641C252.859 108.72 253.058 108.761 253.259 108.761C253.46 108.761 253.659 108.72 253.844 108.641V96.9436C253.844 96.3056 253.844 96.1991 254.59 96.1991H258.154C258.633 96.1991 258.739 96.1991 258.739 95.6676C258.739 95.1358 259.06 94.3914 258.102 94.3914Z" fill="white"/>
<path d="M417.541 107.257H412.698C411.422 107.257 411.474 107.257 411.474 106.034V95.4002C411.474 94.3898 411.474 94.3898 410.41 94.4431C409.346 94.4962 409.983 94.4431 409.931 94.8684V108.374C409.931 108.374 409.931 108.693 410.355 108.746H417.222C417.966 108.746 418.02 108.746 418.02 107.895C418.02 107.364 417.914 107.31 417.541 107.257Z" fill="white"/>
<path d="M406.47 107.311H401.521C400.245 107.311 400.297 107.311 400.297 106.141V95.0285C400.297 95.0285 400.297 94.5498 400.297 94.4967C400.102 94.4162 399.895 94.3749 399.684 94.3749C399.474 94.3749 399.267 94.4162 399.072 94.4967V108.109C399.063 108.16 399.068 108.212 399.081 108.261C399.097 108.311 399.124 108.356 399.16 108.393C399.199 108.429 399.244 108.456 399.294 108.472C399.341 108.487 399.395 108.49 399.445 108.481H406.843C406.936 108.309 406.985 108.117 406.985 107.922C406.985 107.727 406.936 107.536 406.843 107.364C406.843 107.364 406.524 107.311 406.47 107.311Z" fill="white"/>
<path d="M310.682 107.311H305.733C304.455 107.311 304.509 107.311 304.509 106.141V95.0285C304.509 95.0285 304.509 94.5498 304.509 94.4967C304.315 94.4162 304.107 94.3749 303.897 94.3749C303.687 94.3749 303.479 94.4162 303.285 94.4967V108.109C303.276 108.16 303.278 108.212 303.294 108.261C303.309 108.311 303.337 108.356 303.373 108.393C303.409 108.429 303.454 108.456 303.504 108.472C303.553 108.487 303.605 108.49 303.657 108.481H311.055C311.148 108.309 311.197 108.117 311.197 107.922C311.197 107.727 311.148 107.536 311.055 107.364C311.055 107.364 310.734 107.311 310.682 107.311Z" fill="white"/>
<path d="M298.439 94.3914C298.014 94.3914 297.96 94.3914 297.908 94.87V107.525C297.881 107.79 297.881 108.057 297.908 108.322V108.588C298.093 108.667 298.292 108.708 298.493 108.708C298.694 108.708 298.893 108.667 299.078 108.588C299.078 108.588 299.078 108.588 299.078 108.322C299.103 108.164 299.103 108.002 299.078 107.844V95.242C299.291 94.4445 299.239 94.3914 298.439 94.3914Z" fill="white"/>
<path d="M316.002 94.9202C316.002 94.548 316.002 94.4415 315.469 94.4415C314.938 94.4415 314.511 94.4415 314.511 95.3455V107.788C314.482 107.981 314.482 108.179 314.511 108.372V108.638C314.696 108.717 314.895 108.758 315.096 108.758C315.299 108.758 315.498 108.717 315.683 108.638C315.683 108.638 315.683 108.638 315.683 108.372C315.708 108.107 315.708 107.84 315.683 107.575V94.9202H316.002Z" fill="white"/>
<path d="M207.546 94.3914C207.227 94.3914 207.12 94.3914 207.12 94.8167V107.844C207.12 108.641 207.12 108.694 207.918 108.694C208.045 108.694 208.167 108.644 208.257 108.554C208.347 108.465 208.397 108.343 208.397 108.216V95.242C208.61 94.4445 208.504 94.3914 207.546 94.3914Z" fill="white"/>
<path d="M360.85 94.4201C360.746 94.433 360.651 94.4836 360.583 94.562C360.513 94.6405 360.477 94.7413 360.477 94.8455C360.45 95.1282 360.45 95.4132 360.477 95.6961V105.586L359.786 105.054C357.816 102.183 355.846 99.1523 353.931 96.1215L353.027 94.7921C352.503 94.4644 351.882 94.3324 351.27 94.4201C351.22 94.7905 351.22 95.1661 351.27 95.5366V108.298C351.27 108.617 351.27 108.723 351.749 108.723C352.228 108.723 352.761 108.723 352.761 107.766V97.8761L355.103 101.385L359.519 108.298C359.617 108.465 359.757 108.603 359.924 108.696C360.093 108.79 360.285 108.836 360.477 108.829C361.914 108.776 361.914 108.776 361.914 107.766V95.377C361.914 94.4201 361.914 94.4201 360.85 94.4201Z" fill="white"/>
</g>
<defs>
<clipPath id="clip0_1234_6179">
<rect width="445" height="113" fill="white"/>
</clipPath>
</defs>
</svg>
